<?xml version="1.0" standalone="no"?>
<!DOCTYPE svg PUBLIC "-//W3C//DTD SVG 20010904//EN"
 "http://www.w3.org/TR/2001/REC-SVG-20010904/DTD/svg10.dtd">
<svg version="1.0" xmlns="http://www.w3.org/2000/svg"
 width="2085.000000pt" height="2085.000000pt" viewBox="0 0 2085.000000 2085.000000"
 preserveAspectRatio="xMidYMid meet">
<metadata>
Created by potrace 1.11, written by Peter Selinger 2001-2013
</metadata>
<g transform="translate(0.000000,2085.000000) scale(0.100000,-0.100000)"
fill="#000000" stroke="none">
<path d="M2405 20840 c-1 -3 -2 -84 -1 -180 1 -96 -2 -182 -5 -190 -6 -13 -44
-15 -268 -15 l-261 0 0 -390 0 -390 223 0 222 0 5 -170 5 -170 32 0 c35 0 43
-5 47 -32 3 -17 17 -18 224 -18 l222 1 1 -31 c0 -16 1 -92 1 -167 1 -146 1
-145 53 -144 24 1 31 -4 35 -24 l5 -25 220 0 220 0 2 -120 c1 -66 2 -143 2
-170 l1 -50 298 0 c163 1 302 -1 309 -3 6 -2 9 -10 7 -17 -3 -7 0 -16 7 -20 6
-5 108 -8 225 -8 187 0 213 -2 216 -16 2 -9 4 -85 3 -168 l0 -153 37 0 c26 0
38 -5 41 -17 3 -10 5 -197 5 -415 l-1 -398 -573 0 c-452 0 -574 3 -575 13 0 6
0 105 0 220 l0 207 -227 0 -227 0 2 170 1 170 -534 0 -534 0 0 -390 c0 -305 3
-390 13 -391 6 0 108 0 225 0 l212 0 0 -169 0 -170 28 -1 c15 -1 33 -1 40 0 7
1 12 -9 12 -23 l0 -26 226 -2 227 -3 0 -168 -1 -167 1336 2 1335 3 1 190 1
190 255 2 c140 1 260 2 266 2 8 1 11 164 10 584 l-1 582 -217 1 c-120 0 -220
3 -223 5 -2 3 -5 81 -6 173 l-1 167 -41 -3 c-39 -2 -42 -1 -45 24 l-3 28 -197
-1 c-108 0 -209 0 -223 0 l-27 1 1 168 0 167 -39 1 c-34 0 -39 3 -42 26 l-3
26 -222 -1 -222 0 -3 170 -2 170 -293 1 c-351 0 -328 -1 -326 15 4 35 0 36
-133 36 -73 0 -175 0 -226 0 l-92 1 1 128 c0 70 0 147 0 171 l-1 43 -40 -4
-40 -4 -1 46 c-3 136 0 383 5 387 4 5 823 7 1087 4 l57 -1 0 -192 c0 -106 1
-204 1 -218 l1 -26 213 1 c116 1 218 -1 224 -3 9 -3 12 -36 12 -115 0 -62 0
-137 0 -167 l1 -55 533 0 532 0 0 390 0 390 -210 1 c-115 1 -217 2 -225 3 -13
1 -15 27 -15 169 l0 167 -32 1 c-51 2 -54 3 -52 17 1 6 1 17 0 22 -1 6 -83 10
-224 10 l-222 0 0 168 c0 104 -4 167 -10 168 -33 4 -2657 3 -2660 -1z"/>
<path d="M6142 19091 l3 -1754 223 0 222 1 0 -169 0 -169 40 0 c36 0 40 -2 40
-25 l0 -25 225 0 c207 0 225 -1 226 -17 0 -10 1 -87 1 -170 l1 -153 1334 0
1333 0 1 23 c0 12 0 99 1 194 l0 172 247 0 c135 0 256 0 268 0 l22 1 -2 1753
-2 1752 -217 0 c-119 0 -220 3 -224 7 -3 4 -7 74 -6 155 0 81 -2 155 -4 163
-3 13 -71 15 -534 15 l-530 0 -1 -35 c0 -19 0 -808 0 -1752 l-1 -1718 -576 0
-577 0 0 1582 0 1583 -222 0 c-217 0 -223 0 -224 20 0 11 -1 86 -1 168 0 81
-3 148 -6 148 -4 1 -244 2 -535 3 l-527 1 2 -1754z"/>
<path d="M10940 20840 c-14 -8 -10 -1158 4 -1163 6 -2 109 -3 229 -2 l217 0 1
-40 c0 -22 1 -97 1 -167 0 -87 3 -128 11 -130 7 -2 127 -4 267 -4 l255 1 2
160 c1 88 2 176 2 195 1 34 3 36 36 36 l35 0 0 -1193 0 -1193 -265 0 -265 0
-1 -52 c0 -75 0 -213 0 -280 l1 -58 230 0 230 0 -1 -62 c-1 -35 -1 -111 0
-170 l1 -108 1065 0 c1058 0 1065 0 1066 20 0 11 0 90 0 175 0 85 0 164 0 175
-1 19 -8 20 -230 20 l-228 0 -1 153 c0 83 0 160 -1 170 -1 13 -10 17 -36 17
l-35 0 2 1192 3 1192 28 1 c27 2 48 -19 41 -40 -3 -7 76 -10 226 -10 223 0
230 0 231 -20 0 -11 1 -88 1 -170 l1 -150 266 0 266 0 0 585 0 585 -222 0
c-122 0 -225 3 -229 7 -4 4 -7 80 -7 168 1 113 -2 160 -11 161 -38 4 -3179 3
-3186 -1z"/>
<path d="M14670 20649 l0 -196 218 -1 c119 0 223 -1 229 -1 9 -1 13 -45 15
-168 l3 -168 28 -1 c15 -1 30 -4 34 -7 5 -5 9 -2686 4 -2754 -1 -10 -61 -13
-266 -13 l-265 0 0 -195 0 -195 230 0 230 0 0 -170 0 -170 1335 0 1335 0 0
195 0 194 262 1 c144 0 264 2 266 5 2 2 4 89 4 193 l0 189 231 1 c128 0 249 1
269 1 l37 1 -2 1167 -2 1168 -227 0 -228 0 -1 90 c0 49 -1 126 -2 170 l-2 80
-37 0 c-34 0 -38 3 -38 25 l0 26 -217 -1 c-120 -1 -223 0 -230 3 -8 2 -11 51
-11 170 l0 167 -36 -1 c-32 0 -36 3 -36 25 l0 26 -227 0 -228 0 -5 170 -5 170
-1332 0 -1333 0 0 -196z m2135 -559 c-2 -11 -1 -21 3 -21 4 -1 108 -2 232 -3
l225 -1 1 -160 c1 -88 2 -165 3 -171 0 -6 16 -10 34 -10 l32 1 1 -997 1 -998
-266 0 -266 0 0 -192 0 -193 -37 -3 -36 -3 0 1385 0 1386 39 0 c32 0 37 -3 34
-20z"/>
<path d="M10325 16730 c-96 -23 -291 -93 -650 -232 -99 -38 -189 -74 -200 -79
-98 -44 -301 -115 -395 -139 -166 -42 -322 -100 -465 -172 -65 -33 -226 -90
-234 -83 -3 4 -6 45 -7 93 -1 48 -2 89 -3 92 0 3 -119 5 -263 5 l-263 0 -3
-191 c-2 -172 -4 -192 -20 -196 -9 -2 -128 -4 -264 -3 -163 0 -248 -3 -249
-10 0 -5 -1 -48 0 -95 l0 -86 -57 -21 c-31 -11 -124 -42 -207 -69 -183 -58
-300 -103 -417 -160 -48 -24 -89 -44 -91 -44 -1 0 -54 -14 -117 -30 -145 -39
-254 -78 -399 -147 -63 -29 -124 -55 -135 -57 -132 -25 -328 -93 -491 -171
-49 -23 -136 -54 -191 -69 -135 -34 -255 -77 -389 -138 -106 -49 -154 -66
-410 -148 -66 -21 -169 -56 -230 -78 -60 -21 -122 -42 -137 -45 l-26 -7 0 540
-1 540 32 1 c18 0 137 1 265 1 127 1 233 3 233 7 1 3 2 90 3 193 1 121 -2 189
-9 191 -5 2 -105 3 -220 3 l-211 -1 1 145 0 145 -1067 0 -1068 0 0 -197 0
-197 157 0 c87 0 186 0 220 0 l62 -1 3 -142 3 -143 39 -3 c22 -1 42 -5 45 -7
9 -10 4 -1626 -5 -1634 -7 -6 -62 -25 -109 -37 -54 -14 -242 -97 -299 -132
-21 -13 -50 -26 -65 -28 -141 -24 -375 -105 -518 -180 -34 -18 -124 -49 -200
-69 -160 -42 -221 -65 -428 -158 -55 -25 -123 -50 -151 -56 -76 -15 -273 -84
-446 -155 l-153 -63 -26 -52 c-28 -57 -43 -113 -64 -236 -13 -78 -13 -405 1
-515 3 -25 7 -1703 9 -3730 1 -2027 3 -3764 4 -3860 1 -96 -1 -186 -3 -200 -3
-14 -7 -41 -10 -60 -3 -19 -12 -70 -19 -112 -48 -268 48 -468 286 -597 77 -41
236 -96 340 -117 45 -9 163 -46 262 -82 99 -36 227 -82 285 -102 151 -54 412
-149 430 -157 8 -3 17 -7 20 -7 3 -1 19 -7 35 -13 17 -7 136 -51 265 -99 129
-47 249 -92 265 -99 17 -7 57 -23 90 -35 75 -27 88 -33 147 -59 26 -12 51 -21
55 -21 5 0 59 -20 121 -44 62 -24 114 -44 115 -45 1 0 9 -2 17 -5 125 -44 303
-102 405 -131 71 -20 159 -52 196 -71 144 -72 316 -135 474 -173 44 -10 110
-35 147 -54 91 -48 234 -103 468 -180 107 -36 247 -84 310 -107 63 -23 176
-63 250 -90 210 -75 626 -233 725 -274 158 -67 595 -217 732 -252 35 -9 120
-40 190 -71 71 -30 180 -75 243 -100 63 -25 124 -49 135 -54 40 -18 336 -122
589 -208 144 -49 380 -132 526 -186 146 -53 407 -149 580 -212 173 -63 410
-153 525 -198 283 -112 425 -159 510 -172 17 -2 73 -25 125 -50 314 -151 523
-198 695 -154 134 34 223 67 385 143 69 33 351 138 410 154 54 14 696 244 765
274 18 8 289 108 970 360 138 51 329 122 425 157 96 36 229 80 295 98 167 47
252 78 385 142 63 30 142 62 175 69 33 8 65 16 70 18 6 1 30 8 55 15 112 31
251 86 382 151 31 16 97 42 146 59 310 105 617 214 782 276 163 61 308 115
355 132 22 8 207 77 410 153 204 75 424 154 490 174 328 101 709 240 955 348
130 57 160 68 350 125 186 55 488 163 807 289 120 47 279 108 353 135 74 28
142 53 150 56 8 3 17 7 20 8 3 1 12 4 20 8 8 3 56 20 105 37 50 18 117 42 150
55 33 12 164 57 290 100 357 119 466 178 515 282 28 61 35 113 33 263 -7 427
-4 8017 3 8115 12 172 10 448 -4 530 -7 39 -27 111 -44 162 l-31 92 -124 51
c-251 103 -420 161 -513 176 -19 3 -80 28 -136 55 -55 26 -141 64 -190 83 -85
32 -295 96 -317 96 -5 0 -49 18 -96 41 -106 50 -256 110 -336 134 -33 10 -64
22 -69 26 -5 5 -9 311 -9 741 l0 733 -219 0 -218 0 -1 25 c-1 14 -1 78 -1 142
0 78 -4 118 -12 120 -6 3 -28 4 -49 3 l-37 -1 1 41 c1 22 1 45 0 50 -1 7 -77
10 -216 10 -138 0 -216 3 -218 10 -2 5 -4 68 -4 138 0 70 -4 131 -8 135 -3 4
-23 7 -43 7 -37 1 -37 1 -42 50 l-5 50 -215 0 -215 0 -5 145 -5 145 -1332 0
-1333 0 0 -197 0 -196 220 1 220 2 0 -148 0 -149 34 5 c19 2 39 1 46 -3 8 -5
12 -75 12 -259 0 -139 -2 -254 -4 -257 -3 -2 -38 7 -79 21 -41 14 -125 39
-187 56 -61 17 -142 45 -180 63 -37 19 -91 44 -119 56 -29 12 -53 28 -54 34 0
6 -1 160 -1 343 0 239 -3 333 -12 335 -6 3 -104 4 -218 3 l-208 0 -1 90 c-1
49 -1 114 0 143 0 28 -3 53 -7 53 -42 7 -1055 2 -1060 -6 -3 -5 -5 -103 -5
-217 l1 -207 -66 25 c-285 109 -456 168 -674 234 -75 22 -181 61 -235 87 -140
66 -282 117 -407 148 -72 17 -148 46 -230 85 -127 62 -272 114 -416 150 -99
25 -146 43 -293 116 -235 116 -373 143 -532 104z m6583 -1204 c5 -3 8 -23 7
-45 -1 -23 3 -41 9 -44 6 -2 104 -3 219 -2 133 0 207 -3 208 -10 1 -5 2 -71 3
-145 l1 -135 35 -1 c19 -1 40 -2 47 -3 15 -1 16 -911 0 -911 -5 0 -42 12 -81
26 -39 14 -78 27 -86 29 -8 2 -112 38 -230 79 -118 42 -215 76 -216 76 -6 0 1
1087 8 1091 10 6 63 3 76 -5z"/>
</g>
</svg>
